<svg xmlns="http://www.w3.org/2000/svg" xmlns:xlink="http://www.w3.org/1999/xlink" width="38" height="37" viewBox="0 0 38 37"><defs><style>.a{fill:#17ff4d;}.b{clip-path:url(#a);}</style><clipPath id="a"><ellipse class="a" cx="19" cy="18.5" rx="19" ry="18.5" transform="translate(-0.242)"/></clipPath></defs><g class="b" transform="translate(0.242)"><g transform="translate(2.945 0.765)"><path class="a" d="M53.087,24.038a11.506,11.506,0,0,0-8.413-6.222,2.982,2.982,0,0,0-1.9.382,9.953,9.953,0,0,1-11.294-.03,2.561,2.561,0,0,0-2-.385,11.685,11.685,0,0,0-8.4,6.382,1.341,1.341,0,0,0,.082,1.509,18.762,18.762,0,0,0,31.817,0A1.406,1.406,0,0,0,53.087,24.038Z" transform="translate(-20.894 1.871)"/><path class="a" d="M34.983,22.568a9.429,9.429,0,1,0-9.234-9.638A9.446,9.446,0,0,0,34.983,22.568Z" transform="translate(-18.959 -3.713)"/></g></g></svg>